<svg width="1014" height="606" viewBox="0 0 1014 606" fill="none" xmlns="http://www.w3.org/2000/svg">
<g clip-path="url(#clip0_22_314)">
<path d="M776.342 599.147C763.36 588.182 755.475 570.859 757.543 553.996C759.611 537.133 772.419 521.63 789.033 518.049C805.647 514.468 824.586 524.381 829.632 540.605C832.41 509.327 835.61 476.738 852.246 450.102C867.309 425.983 893.399 408.726 921.674 405.638C949.949 402.551 979.72 414.212 997.354 436.521C1014.99 458.83 1019.31 491.262 1006.96 516.875C997.857 535.743 981.095 549.784 963.532 561.208C906.781 597.811 838.715 612.696 771.859 603.124L776.342 599.147Z" fill="#F2F2F2"/>
<path d="M969.393 414.859C946.062 433.854 924.659 455.1 905.492 478.288C875.496 514.452 851.224 554.999 833.519 598.516C832.223 601.691 837.38 603.073 838.662 599.934C867.629 529.209 913.873 466.874 973.164 418.628C975.827 416.461 972.034 412.709 969.393 414.859Z" fill="white"/>
<path d="M326.423 596.168C344.254 581.107 355.084 557.315 352.244 534.153C349.404 510.991 331.812 489.699 308.992 484.78C286.173 479.862 260.16 493.477 253.229 515.76C249.414 472.799 245.019 428.039 222.17 391.454C201.48 358.328 165.646 334.624 126.81 330.384C87.9733 326.143 47.0837 342.159 22.8629 372.801C-1.35794 403.442 -7.2883 447.988 9.67532 483.167C22.1718 509.082 45.1948 528.368 69.3171 544.059C146.276 594.117 241.743 614.994 332.581 601.63" fill="#F2F2F2"/>
<path d="M61.2674 343.047C93.3122 369.138 122.71 398.318 149.035 430.167C175.365 461.983 198.545 496.276 218.251 532.566C229.265 552.923 239.16 573.866 247.89 595.301C249.67 599.661 242.587 601.56 240.827 597.248C225.363 559.457 206.231 523.273 183.706 489.214C161.29 455.278 135.634 423.595 107.098 394.612C90.9581 378.226 73.9289 362.741 56.0878 348.224C52.4309 345.248 57.6407 340.095 61.2674 343.047Z" fill="white"/>
<path d="M727.865 604.674H302.452V168.353C302.452 75.5228 378.003 0 470.869 0H559.449C652.314 0 727.865 75.5228 727.865 168.353V604.674Z" fill="#F2F2F2"/>
<path d="M639.286 604.673H302.452V168.353C302.359 132.783 313.627 98.1111 334.615 69.3866C335.389 68.3325 336.16 67.292 336.956 66.2629C347.108 52.9531 359.189 41.2315 372.801 31.4847C373.57 30.9255 374.342 30.376 375.125 29.8264C386.515 21.9475 398.835 15.5067 411.806 10.6505C412.577 10.3586 413.361 10.0662 414.145 9.78577C425.876 5.60091 438.037 2.7343 450.402 1.23887C451.169 1.13419 451.956 1.05228 452.743 0.97036C464.793 -0.317594 476.947 -0.317594 488.997 0.97036C489.782 1.05228 490.569 1.13418 491.345 1.23999C503.707 2.73552 515.865 5.60178 527.593 9.78582C528.377 10.0663 529.161 10.3587 529.934 10.6511C542.745 15.446 554.921 21.7908 566.189 29.5437C566.972 30.0813 567.755 30.6309 568.527 31.1804C576.157 36.6245 583.324 42.6895 589.954 49.3136C595.271 54.6268 600.225 60.2905 604.784 66.2664C605.578 67.2921 606.349 68.3325 607.122 69.385C628.111 98.1097 639.379 132.782 639.286 168.353V604.673Z" fill="#CCCCCC"/>
<path d="M611.897 409.524C622.196 409.524 630.545 401.178 630.545 390.882C630.545 380.587 622.196 372.241 611.897 372.241C601.597 372.241 593.248 380.587 593.248 390.882C593.248 401.178 601.597 409.524 611.897 409.524Z" fill="#7E0772"/>
<path d="M693.015 591.605H678.726L671.927 536.511L693.018 536.512L693.015 591.605Z" fill="#FFB8B8"/>
<path d="M668.519 587.523H696.077V604.868H651.168C651.168 602.59 651.617 600.335 652.489 598.23C653.361 596.126 654.639 594.214 656.25 592.603C657.862 590.993 659.774 589.715 661.879 588.844C663.985 587.972 666.241 587.523 668.519 587.523Z" fill="#2F2E41"/>
<path d="M764.112 591.605H749.823L743.024 536.511L764.114 536.512L764.112 591.605Z" fill="#FFB8B8"/>
<path d="M739.616 587.523H767.173V604.868H722.265C722.265 602.59 722.714 600.335 723.586 598.23C724.458 596.126 725.736 594.214 727.347 592.603C728.958 590.993 730.871 589.715 732.976 588.844C735.081 587.972 737.338 587.523 739.616 587.523Z" fill="#2F2E41"/>
<path d="M621.335 394.575C620.307 393.061 619.623 391.34 619.333 389.534C619.042 387.727 619.151 385.879 619.652 384.119C620.154 382.359 621.035 380.731 622.234 379.348C623.433 377.965 624.92 376.862 626.592 376.117L675.166 242.289L699.067 255.327L643.606 383.218C644.673 386.108 644.643 389.289 643.52 392.158C642.398 395.028 640.262 397.385 637.517 398.785C634.771 400.185 631.608 400.53 628.625 399.754C625.643 398.978 623.049 397.135 621.335 394.575Z" fill="#FFB8B8"/>
<path d="M756.813 419.722C755.225 418.812 753.856 417.565 752.802 416.068C751.749 414.572 751.036 412.863 750.714 411.062C750.393 409.261 750.47 407.411 750.942 405.643C751.413 403.874 752.266 402.231 753.441 400.828L738.393 259.261L765.594 260.503L771.848 399.753C774.074 401.883 775.442 404.755 775.692 407.826C775.942 410.896 775.056 413.952 773.203 416.413C771.35 418.874 768.658 420.571 765.637 421.18C762.616 421.79 759.476 421.271 756.813 419.722Z" fill="#FFB8B8"/>
<path d="M713.42 217.5C729.23 217.5 742.046 204.689 742.046 188.885C742.046 173.081 729.23 160.27 713.42 160.27C697.61 160.27 684.794 173.081 684.794 188.885C684.794 204.689 697.61 217.5 713.42 217.5Z" fill="#FFB8B8"/>
<path d="M756.63 387.525H670.327L670.431 386.854C670.586 385.851 685.812 286.146 674.582 253.528C673.455 250.322 673.555 246.813 674.861 243.677C676.167 240.54 678.587 237.997 681.656 236.537C697.707 228.981 728.519 219.677 754.525 242.256C758.352 245.634 761.34 249.855 763.253 254.586C765.167 259.316 765.953 264.427 765.55 269.514L756.63 387.525Z" fill="#7E0772"/>
<path d="M686.903 300.881L648.048 293.001L666.261 249.859C667.351 245.68 670.054 242.104 673.778 239.916C677.502 237.727 681.942 237.104 686.125 238.183C690.308 239.263 693.891 241.956 696.09 245.674C698.289 249.391 698.923 253.828 697.853 258.012L686.903 300.881Z" fill="#7E0772"/>
<path d="M736.666 315.512L734.33 261.987C732.558 251.925 738.321 242.413 747.182 240.858C756.047 239.309 764.702 246.288 766.481 256.424L775.261 306.438L736.666 315.512Z" fill="#7E0772"/>
<path d="M753.759 381.117C767.645 433.985 769.16 501.201 765.414 574.52L746.766 572.19L712.966 432.381L694.317 574.52L673.338 573.355C667.071 496.425 660.968 430.382 671.007 386.943L753.759 381.117Z" fill="#2F2E41"/>
<path d="M732.282 211C726.941 216.686 717.024 213.633 716.328 205.865C716.273 205.262 716.277 204.655 716.34 204.052C716.699 200.611 718.688 197.487 718.211 193.854C718.103 192.95 717.766 192.088 717.232 191.35C712.976 185.654 702.987 193.898 698.97 188.741C696.508 185.579 699.403 180.601 697.513 177.067C695.019 172.402 687.631 174.703 682.998 172.149C677.843 169.306 678.151 161.401 681.544 156.592C685.683 150.727 692.938 147.598 700.103 147.147C707.269 146.696 714.384 148.632 721.074 151.238C728.674 154.199 736.211 158.291 740.888 164.971C746.576 173.096 747.124 184.018 744.279 193.518C742.548 199.297 736.643 206.356 732.282 211Z" fill="#2F2E41"/>
<path d="M979.013 605.423H118.519C118.151 605.422 117.799 605.276 117.54 605.016C117.281 604.756 117.135 604.403 117.135 604.036C117.135 603.669 117.281 603.317 117.54 603.057C117.799 602.797 118.151 602.65 118.519 602.649H979.013C979.381 602.65 979.732 602.797 979.992 603.057C980.251 603.317 980.397 603.669 980.397 604.036C980.397 604.403 980.251 604.756 979.992 605.016C979.732 605.276 979.381 605.422 979.013 605.423Z" fill="#3F3D56"/>
<path d="M546.628 478.263H395.11C393.115 478.274 391.197 477.493 389.776 476.092C388.356 474.691 387.55 472.784 387.534 470.789V132.72C387.55 130.725 388.356 128.818 389.776 127.417C391.197 126.016 393.115 125.235 395.11 125.246H546.628C548.623 125.235 550.541 126.016 551.962 127.417C553.382 128.818 554.188 130.725 554.203 132.72V470.789C554.188 472.784 553.382 474.691 551.962 476.092C550.541 477.493 548.623 478.274 546.628 478.263Z" fill="white"/>
<path d="M554.203 234.634H387.534V236.964H554.203V234.634Z" fill="#CCCCCC"/>
<path d="M554.786 367.581H388.117V369.911H554.786V367.581Z" fill="#CCCCCC"/>
<path d="M442.314 125.246H439.983V479.428H442.314V125.246Z" fill="#CCCCCC"/>
<path d="M500.59 125.246H498.259V479.428H500.59V125.246Z" fill="#CCCCCC"/>
</g>
<defs>
<clipPath id="clip0_22_314">
<rect width="1014" height="606" fill="white"/>
</clipPath>
</defs>
</svg>
