<svg width="337" height="41" viewBox="0 0 337 41" fill="none" xmlns="http://www.w3.org/2000/svg">
<path d="M14.456 35.336C10.52 35.336 7.288 34.408 4.76 32.552C2.232 30.664 0.872 27.976 0.68 24.488H10.712C10.808 25.672 11.16 26.536 11.768 27.08C12.376 27.624 13.16 27.896 14.12 27.896C14.984 27.896 15.688 27.688 16.232 27.272C16.808 26.824 17.096 26.216 17.096 25.448C17.096 24.456 16.632 23.688 15.704 23.144C14.776 22.6 13.272 21.992 11.192 21.32C8.984 20.584 7.192 19.88 5.816 19.208C4.472 18.504 3.288 17.496 2.264 16.184C1.272 14.84 0.776 13.096 0.776 10.952C0.776 8.776 1.32 6.92 2.408 5.384C3.496 3.816 5 2.632 6.92 1.832C8.84 1.032 11.016 0.631999 13.448 0.631999C17.384 0.631999 20.52 1.56 22.856 3.416C25.224 5.24 26.488 7.816 26.648 11.144H16.424C16.392 10.12 16.072 9.352 15.464 8.84C14.888 8.328 14.136 8.072 13.208 8.072C12.504 8.072 11.928 8.28 11.48 8.696C11.032 9.112 10.808 9.704 10.808 10.472C10.808 11.112 11.048 11.672 11.528 12.152C12.04 12.6 12.664 13 13.4 13.352C14.136 13.672 15.224 14.088 16.664 14.6C18.808 15.336 20.568 16.072 21.944 16.808C23.352 17.512 24.552 18.52 25.544 19.832C26.568 21.112 27.08 22.744 27.08 24.728C27.08 26.744 26.568 28.552 25.544 30.152C24.552 31.752 23.096 33.016 21.176 33.944C19.288 34.872 17.048 35.336 14.456 35.336ZM56.9416 1.16V8.648H47.9176V35H38.5096V8.648H29.5816V1.16H56.9416ZM81.8304 29.48H69.8304L68.0064 35H58.1184L70.4544 1.16H81.3024L93.5904 35H83.6544L81.8304 29.48ZM79.4784 22.28L75.8304 11.336L72.2304 22.28H79.4784ZM95.5048 18.008C95.5048 14.68 96.1928 11.72 97.5688 9.128C98.9768 6.504 100.961 4.472 103.521 3.032C106.081 1.56 109.025 0.823999 112.353 0.823999C116.577 0.823999 120.129 1.96 123.009 4.232C125.889 6.472 127.745 9.528 128.577 13.4H118.449C117.841 12.12 116.993 11.144 115.905 10.472C114.849 9.8 113.617 9.464 112.209 9.464C110.033 9.464 108.289 10.248 106.977 11.816C105.697 13.352 105.057 15.416 105.057 18.008C105.057 20.632 105.697 22.728 106.977 24.296C108.289 25.832 110.033 26.6 112.209 26.6C113.617 26.6 114.849 26.264 115.905 25.592C116.993 24.92 117.841 23.944 118.449 22.664H128.577C127.745 26.536 125.889 29.608 123.009 31.88C120.129 34.12 116.577 35.24 112.353 35.24C109.025 35.24 106.081 34.52 103.521 33.08C100.961 31.608 98.9768 29.576 97.5688 26.984C96.1928 24.36 95.5048 21.368 95.5048 18.008ZM153.048 35L142.44 20.168V35H133.032V1.16H142.44V15.752L152.952 1.16H163.8L151.368 17.576L164.424 35H153.048Z" fill="#7E0772"/>
<path d="M166.708 18.008C166.708 14.68 167.396 11.72 168.772 9.128C170.18 6.504 172.164 4.472 174.724 3.032C177.284 1.56 180.228 0.823999 183.556 0.823999C187.78 0.823999 191.332 1.96 194.212 4.232C197.092 6.472 198.948 9.528 199.78 13.4H189.652C189.044 12.12 188.196 11.144 187.108 10.472C186.052 9.8 184.82 9.464 183.412 9.464C181.236 9.464 179.492 10.248 178.18 11.816C176.9 13.352 176.26 15.416 176.26 18.008C176.26 20.632 176.9 22.728 178.18 24.296C179.492 25.832 181.236 26.6 183.412 26.6C184.82 26.6 186.052 26.264 187.108 25.592C188.196 24.92 189.044 23.944 189.652 22.664H199.78C198.948 26.536 197.092 29.608 194.212 31.88C191.332 34.12 187.78 35.24 183.556 35.24C180.228 35.24 177.284 34.52 174.724 33.08C172.164 31.608 170.18 29.576 168.772 26.984C167.396 24.36 166.708 21.368 166.708 18.008ZM213.643 27.8H224.155V35H204.235V1.16H213.643V27.8ZM237.221 1.16V35H227.813V1.16H237.221ZM265.763 40.664L262.019 35.048C260.963 35.24 259.891 35.336 258.803 35.336C255.635 35.336 252.723 34.6 250.067 33.128C247.411 31.624 245.299 29.56 243.731 26.936C242.195 24.28 241.427 21.288 241.427 17.96C241.427 14.632 242.195 11.656 243.731 9.032C245.299 6.376 247.411 4.312 250.067 2.84C252.723 1.368 255.635 0.631999 258.803 0.631999C262.003 0.631999 264.915 1.368 267.539 2.84C270.195 4.312 272.291 6.376 273.827 9.032C275.363 11.656 276.131 14.632 276.131 17.96C276.131 20.744 275.571 23.32 274.451 25.688C273.331 28.024 271.795 29.976 269.843 31.544L276.995 40.664H265.763ZM251.027 17.96C251.027 20.616 251.715 22.728 253.091 24.296C254.467 25.832 256.371 26.6 258.803 26.6C261.203 26.6 263.091 25.816 264.467 24.248C265.875 22.68 266.579 20.584 266.579 17.96C266.579 15.272 265.875 13.16 264.467 11.624C263.091 10.056 261.203 9.272 258.803 9.272C256.371 9.272 254.467 10.056 253.091 11.624C251.715 13.16 251.027 15.272 251.027 17.96ZM289.623 1.16V20.792C289.623 22.616 290.039 24.024 290.871 25.016C291.735 26.008 293.031 26.504 294.759 26.504C296.487 26.504 297.783 26.008 298.647 25.016C299.543 23.992 299.991 22.584 299.991 20.792V1.16H309.399V20.792C309.399 23.896 308.743 26.552 307.431 28.76C306.119 30.936 304.327 32.584 302.055 33.704C299.815 34.792 297.319 35.336 294.567 35.336C291.815 35.336 289.351 34.792 287.175 33.704C285.031 32.584 283.335 30.936 282.087 28.76C280.871 26.584 280.263 23.928 280.263 20.792V1.16H289.623ZM323.987 8.696V14.216H334.787V21.368H323.987V27.464H336.227V35H314.579V1.16H336.227V8.696H323.987Z" fill="#13B351"/>
</svg>
