<svg width="157" height="126" viewBox="0 0 157 126" fill="none" xmlns="http://www.w3.org/2000/svg">
<path d="M156.355 122.742V9.57929C156.355 7.03935 155.319 4.60339 153.475 2.80703C151.631 1.01067 149.13 0.000991679 146.522 0L9.83692 0C7.228 0 4.72595 1.00924 2.88117 2.80571C1.03639 4.60217 0 7.0387 0 9.57929L0 93.9575C0 96.498 1.03639 98.9346 2.88117 100.731C4.72595 102.528 7.228 103.537 9.83692 103.537H120.901L151.878 124.991C152.302 125.285 152.801 125.459 153.32 125.495C153.839 125.531 154.358 125.427 154.82 125.195C155.283 124.963 155.67 124.611 155.941 124.178C156.212 123.746 156.355 123.249 156.355 122.742Z" fill="#13B351"/>
<path d="M73.9753 89.8089C77.3002 89.8089 79.9956 87.1841 79.9956 83.9463C79.9956 80.7085 77.3002 78.0837 73.9753 78.0837C70.6504 78.0837 67.9551 80.7085 67.9551 83.9463C67.9551 87.1841 70.6504 89.8089 73.9753 89.8089Z" fill="white"/>
<path d="M73.6987 71.2225C72.6593 71.2222 71.6627 70.82 70.9278 70.1042C70.193 69.3885 69.7802 68.4178 69.7802 67.4057V53.2308C69.7803 52.3744 70.0761 51.543 70.6202 50.8702C71.1642 50.1974 71.9249 49.7224 72.7798 49.5215C72.9497 49.4804 90.4814 45.1597 90.4814 33.6711C90.4814 26.4621 84.4122 21.4223 75.7227 21.4223C66.313 21.4223 61.4757 30.5855 61.275 30.9726C60.8048 31.8642 59.9934 32.5398 59.0159 32.8537C58.0385 33.1676 56.9735 33.0944 56.0509 32.6501C55.1284 32.2058 54.4223 31.4259 54.0853 30.4789C53.7482 29.5319 53.8072 28.4938 54.2495 27.5888C54.5375 27.0277 61.3874 13.7906 75.7227 13.7906C88.8155 13.7906 98.3183 22.1488 98.3183 33.6664C98.3183 47.5468 84.0118 53.9049 77.6181 56.0536V67.4057C77.6178 68.4179 77.2048 69.3886 76.4698 70.1043C75.7348 70.82 74.7381 71.2222 73.6987 71.2225Z" fill="white"/>
</svg>
