<svg width="501" height="437" viewBox="0 0 501 437" fill="none" xmlns="http://www.w3.org/2000/svg">
<path d="M357.154 437H247.046L240.439 351.423L353.209 355.29C353.209 355.29 354.574 345.312 354.642 364.226C354.687 377.346 357.501 403.358 357.154 437Z" fill="#262626"/>
<path d="M287.079 346.507C286.977 348.544 286.863 350.593 286.727 352.63C284.973 381.016 280.941 409.226 274.67 437H164.621C166.054 393.548 167.248 359.13 167.248 359.13L240.434 351.423L244.823 350.956L287.079 346.507Z" fill="#262626"/>
<path d="M313.622 56.5184C313.622 56.5184 314.87 84.5083 321.079 94.7944C338.969 124.406 343.569 157.365 324.546 174.098C305.522 190.831 186.79 188.379 178.739 148.716C171.962 115.324 188.297 112.119 192.906 84.8047C194.991 72.4456 200.534 46.5548 200.534 46.5548" fill="#0A0A0A"/>
<path d="M212.031 144.357C212.236 144.331 214.51 181.089 258.36 177.884C288.718 175.669 299.542 144.305 300.237 144.305C296.964 143.628 291.452 142.642 289.999 141.887C285.219 139.386 279.304 136.784 277.763 127.744C276.875 122.533 278.382 95.8782 277.918 90.6066L231.32 100.735C231.971 111.869 236.529 137.678 220.557 142.25C217.899 143.002 215.037 143.695 212.031 144.357Z" fill="#E98862"/>
<path opacity="0.52" d="M230.662 131.699C231.392 129.408 231.862 127.047 232.064 124.656C232.576 119.202 232.474 113.709 231.76 108.276C241.231 107.031 250.153 103.224 257.513 97.2872C258.377 100.399 263.137 113.996 261.82 116.954C259.329 122.544 247.626 131.699 230.662 131.699Z" fill="#0C0C0C"/>
<path d="M234.843 120.082C253.169 122.233 277.104 115.614 282.596 91.9062L287.552 70.5157C293.044 46.8092 284.709 24.782 261.788 19.7441C238.867 14.708 217.282 30.163 211.789 53.8723L209.596 63.3422C207.489 72.4372 202.147 116.251 234.843 120.082Z" fill="#E98862"/>
<path d="M230.456 93.8932C233.974 93.9575 237.428 94.8261 240.538 96.429C240.664 96.4952 240.758 96.6066 240.801 96.7394C240.843 96.8722 240.831 97.016 240.767 97.1403C240.703 97.2646 240.591 97.3595 240.456 97.405C240.321 97.4504 240.173 97.4428 240.043 97.3837C233.334 94.0886 227.043 94.1167 221.851 97.465C221.746 97.5358 221.637 97.6013 221.526 97.6614C221.396 97.7143 221.251 97.717 221.119 97.6688C220.988 97.6206 220.881 97.5253 220.819 97.4024C220.758 97.2794 220.747 97.1383 220.789 97.0078C220.831 96.8774 220.923 96.7676 221.046 96.7011C221.087 96.6786 221.155 96.6338 221.249 96.573C223.976 94.8076 227.182 93.8746 230.456 93.8932Z" fill="#0C0C0C"/>
<path d="M229.567 86.6355H229.521C228.578 86.4958 227.645 86.3057 226.725 86.0661C225.349 85.6986 223.542 85.0703 223.719 83.8678C223.923 82.4971 229.975 68.253 230.664 66.6335C230.692 66.5614 230.735 66.4956 230.79 66.44C230.845 66.3843 230.911 66.34 230.984 66.3095C231.057 66.2791 231.135 66.2632 231.215 66.2627C231.294 66.2623 231.372 66.2773 231.446 66.3069C231.519 66.3365 231.585 66.3801 231.641 66.4352C231.697 66.4902 231.74 66.5555 231.77 66.6273C231.799 66.699 231.813 66.7758 231.811 66.853C231.81 66.9302 231.792 67.0062 231.76 67.0767C229.178 73.1422 225.03 83.1105 224.893 84.0333C225.065 84.4503 227.352 85.1619 229.694 85.492C229.845 85.5141 229.982 85.5921 230.075 85.7098C230.169 85.8275 230.212 85.9758 230.196 86.1237C230.18 86.2717 230.106 86.4079 229.99 86.5041C229.873 86.6003 229.723 86.649 229.57 86.6402L229.567 86.6355Z" fill="#0C0C0C"/>
<path d="M305.739 78.6467L285.191 74.2521C269.748 67.5471 265.956 40.9785 265.956 40.9785C265.956 40.9785 246.282 58.3923 200.539 46.5549C200.539 46.5549 212.027 -15.7521 279.497 4.76882C301.252 11.386 316.245 33.474 313.249 62.2193C311.146 82.3578 305.739 78.6467 305.739 78.6467Z" fill="#0A0A0A"/>
<path d="M279.492 98.8141C286.458 100.345 293.786 94.326 295.358 87.5452C296.93 80.7644 292.149 75.7798 285.181 74.2501L280.538 78.0061L273.504 97.505L279.492 98.8141Z" fill="#E98862"/>
<path d="M226.913 53.9705C224.914 52.6149 222.577 51.8076 220.147 51.6329C218.951 51.5403 217.748 51.6232 216.577 51.8788C215.418 52.1272 214.296 52.5167 213.237 53.0383C213.091 53.1056 212.978 53.2256 212.922 53.3727C212.865 53.5199 212.87 53.6826 212.935 53.8263C213 53.97 213.12 54.0833 213.27 54.1422C213.419 54.2011 213.587 54.2009 213.736 54.1416L213.78 54.1238C214.757 53.6969 215.786 53.3909 216.841 53.2131C217.884 53.0322 218.95 53.0061 220.001 53.1355C222.087 53.3771 224.07 54.1512 225.75 55.3796L225.803 55.4216C225.998 55.5693 226.245 55.6356 226.49 55.606C226.735 55.5763 226.958 55.4532 227.109 55.2636C227.261 55.074 227.329 54.8335 227.298 54.5951C227.268 54.3566 227.142 54.1397 226.947 53.992L226.913 53.9705Z" fill="#0C0C0C"/>
<path d="M244.864 58.0229C246.92 57.6056 249.054 57.7256 251.047 58.3707C252.055 58.6893 253.008 59.1543 253.873 59.7499C254.751 60.3475 255.548 61.0503 256.246 61.8415L256.277 61.8752C256.387 61.9901 256.538 62.0591 256.698 62.0675C256.859 62.076 257.017 62.0232 257.138 61.9204C257.259 61.8176 257.335 61.6729 257.349 61.5168C257.362 61.3607 257.313 61.2055 257.212 61.0841C256.481 60.174 255.635 59.3573 254.694 58.6531C253.747 57.9367 252.694 57.3633 251.572 56.9523C249.297 56.1032 246.829 55.8655 244.427 56.2641C244.304 56.2821 244.186 56.3239 244.08 56.3871C243.974 56.4502 243.882 56.5335 243.809 56.6319C243.737 56.7303 243.685 56.8418 243.658 56.96C243.63 57.0781 243.627 57.2003 243.649 57.3196C243.671 57.4388 243.717 57.5525 243.785 57.654C243.853 57.7556 243.941 57.8428 244.044 57.9107C244.147 57.9785 244.263 58.0255 244.385 58.049C244.507 58.0724 244.633 58.0718 244.754 58.0472L244.793 58.0397L244.864 58.0229Z" fill="#0C0C0C"/>
<path d="M285.154 73.9947L285.379 73.444C259.501 63.3935 266.806 38.5677 266.882 38.3171L266.3 38.147C266.224 38.4013 258.751 63.7404 285.154 73.9947Z" fill="#0C0C0C"/>
<path d="M215.775 64.051C217.373 64.051 218.669 62.7892 218.669 61.2328C218.669 59.6764 217.373 58.4147 215.775 58.4147C214.177 58.4147 212.881 59.6764 212.881 61.2328C212.881 62.7892 214.177 64.051 215.775 64.051Z" fill="#0C0C0C"/>
<path d="M244.378 68.8458C245.977 68.8458 247.272 67.584 247.272 66.0276C247.272 64.4712 245.977 63.2095 244.378 63.2095C242.78 63.2095 241.484 64.4712 241.484 66.0276C241.484 67.584 242.78 68.8458 244.378 68.8458Z" fill="#0C0C0C"/>
<path opacity="0.1" d="M253.289 85.9956C253.605 83.8425 251.418 81.7567 248.404 81.337C245.389 80.9172 242.689 82.3224 242.373 84.4756C242.057 86.6288 244.244 88.7145 247.259 89.1343C250.273 89.554 252.973 88.1488 253.289 85.9956Z" fill="#0C0C0C"/>
<path opacity="0.1" d="M215.532 79.7789C215.21 81.9295 212.511 83.332 209.496 82.9168C208.976 82.8437 208.464 82.7183 207.97 82.5428C207.89 79.9687 207.941 77.4937 208.073 75.2085C208.918 75.0235 209.79 74.9934 210.646 75.1197C213.66 75.532 215.846 77.6209 215.532 79.7789Z" fill="#0C0C0C"/>
<path d="M0.476513 142.199C0.879938 141.421 1.52158 140.784 2.31279 140.376C3.10399 139.969 4.00569 139.81 4.89329 139.923C4.88551 139.871 4.89088 139.818 4.90894 139.769C4.927 139.719 4.9572 139.674 4.99692 139.639C5.03665 139.603 5.0847 139.577 5.13691 139.564C5.18912 139.55 5.24392 139.55 5.29656 139.561L2.30179 137.471C1.40593 136.874 0.762278 135.981 0.489768 134.958C0.217259 133.934 0.33431 132.849 0.819295 131.904C1.32943 130.985 2.17175 130.283 3.18295 129.935C4.19414 129.586 5.30218 129.616 6.29225 130.018C6.28457 129.976 6.31337 129.937 6.3201 129.895L5.08916 129.036C4.24741 128.47 3.63235 127.638 3.34803 126.681C3.06372 125.724 3.12761 124.7 3.52889 123.784C3.79279 123.214 4.1832 122.709 4.67196 122.304C5.16073 121.899 5.73566 121.605 6.35529 121.443C6.97492 121.281 7.6238 121.254 8.25514 121.366C8.88648 121.477 9.48454 121.724 10.0062 122.088L12.8454 124.07C12.854 124.053 12.8454 124.034 12.8569 124.019C12.8684 124.003 12.8992 123.998 12.9155 123.981C12.2627 123.267 11.8786 122.359 11.8263 121.404C11.7739 120.45 12.0565 119.507 12.6274 118.729C13.9717 116.629 17.0615 117.058 18.8983 118.339L35.611 129.582L32.6239 124.684C32.0238 123.742 31.813 122.613 32.0341 121.525C32.2553 120.438 32.8919 119.472 33.8155 118.824C34.3045 118.505 34.8551 118.287 35.4337 118.182C36.0122 118.077 36.6066 118.089 37.1805 118.215C37.7545 118.341 38.2959 118.58 38.7719 118.917C39.2479 119.254 39.6484 119.682 39.949 120.175L56.2613 146.916C58.1748 150.053 58.7569 153.794 57.8837 157.342C57.0106 160.891 54.7511 163.968 51.5853 165.92C47.9138 168.183 43.6318 169.328 39.288 169.207C34.9443 169.085 30.7367 167.703 27.2047 165.238L1.96477 147.622C1.12515 147.014 0.521244 146.147 0.251081 145.163C-0.019081 144.179 0.06036 143.134 0.476513 142.199Z" fill="#E98862"/>
<g opacity="0.25">
<path d="M29.3896 135.187C29.3284 135.269 29.2365 135.325 29.1336 135.343C29.0306 135.36 28.9247 135.338 28.8384 135.28L12.9582 124.563C12.9132 124.534 12.8745 124.498 12.8444 124.454C12.8143 124.411 12.7934 124.362 12.783 124.311C12.7726 124.26 12.7729 124.207 12.7838 124.156C12.7948 124.105 12.8162 124.056 12.8468 124.013C12.8773 123.97 12.9164 123.934 12.9618 123.906C13.0071 123.878 13.0578 123.859 13.1107 123.851C13.1637 123.842 13.2178 123.844 13.27 123.857C13.3221 123.869 13.3712 123.891 13.4143 123.922L29.2945 134.634C29.3814 134.693 29.4408 134.783 29.4597 134.884C29.4786 134.986 29.4555 135.09 29.3953 135.175L29.3896 135.187Z" fill="#0C0C0C"/>
</g>
<g opacity="0.25">
<path d="M24.7245 142.134C24.6634 142.216 24.5715 142.272 24.4685 142.29C24.3655 142.307 24.2596 142.285 24.1734 142.227L6.45157 130.27C6.36451 130.211 6.30492 130.121 6.28584 130.02C6.26677 129.918 6.28976 129.814 6.34979 129.729C6.41245 129.647 6.50488 129.591 6.60831 129.572C6.71174 129.554 6.81841 129.575 6.90668 129.631L24.6295 141.585C24.7164 141.644 24.7758 141.734 24.7947 141.835C24.8135 141.937 24.7904 142.041 24.7303 142.126L24.7245 142.134Z" fill="#0C0C0C"/>
</g>
<g opacity="0.25">
<path d="M19.7253 149.69C19.6645 149.772 19.5728 149.829 19.4699 149.846C19.367 149.864 19.2611 149.841 19.1751 149.783L5.03763 140.246C4.95604 140.185 4.90164 140.096 4.8857 139.997C4.86976 139.898 4.8935 139.797 4.952 139.715C5.0105 139.632 5.09928 139.575 5.19995 139.555C5.30062 139.535 5.40545 139.553 5.49275 139.606L19.6303 149.143C19.7174 149.202 19.777 149.292 19.7959 149.394C19.8148 149.495 19.7915 149.6 19.7311 149.685L19.7253 149.69Z" fill="#0C0C0C"/>
</g>
<path d="M63.4546 137.268L104.052 228.568L160.069 153.909L208.615 196.524L125.716 301.074L125.172 301.822C121.854 306.248 117.434 309.778 112.327 312.08C107.221 314.382 101.597 315.38 95.9848 314.98C90.3728 314.58 84.9578 312.795 80.25 309.793C75.5422 306.792 71.6966 302.673 69.0755 297.824L10.6973 165.845L63.4546 137.268Z" fill="#7E0772"/>
<path d="M108.748 238.121C108.853 238.121 108.955 238.095 109.046 238.046C109.137 237.996 109.213 237.925 109.268 237.838C109.322 237.752 109.353 237.653 109.357 237.551C109.36 237.45 109.338 237.349 109.29 237.259L104.594 228.299C104.518 228.164 104.39 228.063 104.239 228.017C104.088 227.972 103.924 227.986 103.783 228.056C103.642 228.126 103.535 228.246 103.484 228.392C103.433 228.538 103.442 228.698 103.51 228.837L108.206 237.799C108.257 237.896 108.335 237.977 108.43 238.034C108.526 238.091 108.636 238.121 108.748 238.121Z" fill="#0C0C0C"/>
<path d="M157.553 225.28C158.934 241.082 165.653 339.665 166.981 359.129H354.547C355.581 341.574 355.674 264.814 359.595 230.487C363.34 197.73 370.679 181.33 365.298 171.646C356.502 155.819 343.872 141.545 319.657 139.575C309.594 138.755 291.027 142.251 291.027 142.251C291.027 142.251 289.75 167.351 259.367 168.747C218.004 170.648 220.753 142.315 220.561 142.247C212.035 139.211 182.357 137.665 169.288 146.071C144.352 162.105 154.621 191.795 157.553 225.28Z" fill="#7E0772"/>
<path d="M158.951 235.537L157.736 235.604L159.199 260.697L160.413 260.63L158.951 235.537Z" fill="#0C0C0C"/>
<path d="M500.429 153.278C499.954 152.54 499.256 151.964 498.43 151.629C497.605 151.294 496.693 151.217 495.82 151.408C495.823 151.356 495.813 151.303 495.79 151.256C495.767 151.208 495.733 151.166 495.69 151.135C495.647 151.103 495.597 151.082 495.544 151.073C495.49 151.064 495.436 151.068 495.385 151.085L498.169 148.734C499.005 148.059 499.561 147.112 499.736 146.069C499.91 145.026 499.691 143.956 499.119 143.058C498.523 142.189 497.618 141.566 496.578 141.31C495.539 141.053 494.438 141.182 493.49 141.671C493.49 141.629 493.462 141.592 493.452 141.551L494.595 140.585C495.38 139.946 495.914 139.062 496.106 138.084C496.299 137.105 496.138 136.092 495.651 135.215C495.335 134.672 494.898 134.204 494.373 133.845C493.848 133.485 493.248 133.244 492.616 133.138C491.984 133.032 491.335 133.064 490.717 133.232C490.099 133.399 489.527 133.698 489.042 134.107L486.401 136.336C486.392 136.32 486.401 136.3 486.386 136.286C486.37 136.272 486.342 136.269 486.324 136.254C486.906 135.484 487.202 134.545 487.163 133.59C487.124 132.635 486.753 131.721 486.111 130.999C484.575 129.028 481.537 129.733 479.831 131.172L464.251 143.866L466.763 138.724C467.273 137.731 467.377 136.587 467.054 135.523C466.731 134.458 466.005 133.553 465.023 132.99C464.506 132.717 463.937 132.548 463.351 132.496C462.765 132.444 462.174 132.508 461.615 132.685C461.055 132.863 460.538 133.149 460.096 133.528C459.654 133.906 459.296 134.368 459.043 134.885L445.33 162.976C443.721 166.272 443.495 170.048 444.7 173.503C445.905 176.959 448.446 179.82 451.782 181.48C455.653 183.405 460.025 184.161 464.339 183.65C468.653 183.139 472.712 181.386 475.996 178.614L499.462 158.808C500.24 158.127 500.759 157.211 500.934 156.207C501.11 155.203 500.932 154.171 500.429 153.278Z" fill="#E98862"/>
<g opacity="0.25">
<path d="M470.972 148.883C471.041 148.959 471.138 149.006 471.242 149.013C471.346 149.021 471.449 148.989 471.529 148.924L486.329 136.834C486.37 136.801 486.403 136.761 486.427 136.716C486.451 136.67 486.466 136.621 486.471 136.57C486.475 136.519 486.469 136.468 486.454 136.419C486.438 136.37 486.412 136.325 486.379 136.286C486.345 136.246 486.304 136.214 486.257 136.191C486.211 136.167 486.16 136.152 486.107 136.148C486.055 136.144 486.002 136.149 485.952 136.164C485.902 136.18 485.856 136.205 485.816 136.237L471.016 148.327C470.934 148.394 470.884 148.489 470.875 148.591C470.865 148.694 470.899 148.796 470.967 148.875L470.972 148.883Z" fill="#0C0C0C"/>
</g>
<g opacity="0.25">
<path d="M476.269 155.383C476.338 155.459 476.435 155.506 476.539 155.514C476.643 155.522 476.746 155.49 476.826 155.424L493.341 141.932C493.422 141.865 493.473 141.77 493.482 141.667C493.492 141.565 493.459 141.462 493.391 141.383C493.321 141.307 493.223 141.26 493.119 141.251C493.014 141.242 492.91 141.272 492.827 141.335L476.312 154.828C476.231 154.894 476.181 154.989 476.171 155.092C476.162 155.195 476.195 155.297 476.263 155.376L476.269 155.383Z" fill="#0C0C0C"/>
</g>
<g opacity="0.25">
<path d="M481.968 162.462C482.037 162.538 482.134 162.585 482.238 162.593C482.342 162.601 482.445 162.568 482.525 162.503L495.701 151.736C495.782 151.67 495.833 151.575 495.842 151.472C495.851 151.369 495.818 151.267 495.75 151.188C495.682 151.109 495.585 151.059 495.479 151.05C495.373 151.041 495.268 151.074 495.187 151.14L482.012 161.903C481.931 161.969 481.88 162.064 481.871 162.167C481.861 162.27 481.895 162.372 481.963 162.451L481.968 162.462Z" fill="#0C0C0C"/>
</g>
<path d="M438.886 152.1L408.022 229.177L362.958 167.559L314.422 210.175L383.931 313.538L384.475 314.286C387.793 318.712 392.214 322.242 397.32 324.543C402.427 326.845 408.051 327.843 413.663 327.443C419.275 327.043 424.69 325.259 429.398 322.257C434.106 319.256 437.951 315.137 440.573 310.288L490.434 179.494L438.886 152.1Z" fill="#7E0772"/>
<path d="M403.328 238.731C403.223 238.73 403.121 238.704 403.03 238.655C402.939 238.605 402.863 238.533 402.808 238.447C402.754 238.36 402.723 238.262 402.719 238.16C402.715 238.059 402.738 237.958 402.785 237.868L407.481 228.907C407.556 228.769 407.683 228.666 407.836 228.618C407.989 228.571 408.154 228.585 408.297 228.656C408.439 228.727 408.548 228.85 408.598 228.998C408.648 229.146 408.636 229.307 408.565 229.447L403.869 238.407C403.818 238.504 403.741 238.586 403.645 238.643C403.55 238.7 403.44 238.731 403.328 238.731Z" fill="#0C0C0C"/>
</svg>
