<svg width="834" height="524" viewBox="0 0 834 524" fill="none" xmlns="http://www.w3.org/2000/svg">
<g clip-path="url(#clip0_129_1550)">
<path d="M834 215.212H832.591V176.641C832.591 173.71 832.014 170.807 830.892 168.098C829.769 165.39 828.124 162.929 826.051 160.856C823.977 158.783 821.515 157.139 818.805 156.017C816.096 154.895 813.192 154.317 810.259 154.317H728.51C725.578 154.317 722.674 154.895 719.964 156.017C717.255 157.139 714.793 158.783 712.719 160.856C710.645 162.929 709 165.39 707.878 168.098C706.756 170.807 706.178 173.71 706.178 176.641V388.244C706.178 391.175 706.756 394.078 707.878 396.787C709 399.495 710.645 401.956 712.719 404.029C714.793 406.102 717.255 407.746 719.964 408.868C722.674 409.99 725.578 410.568 728.51 410.568H810.259C813.192 410.568 816.096 409.99 818.805 408.868C821.515 407.746 823.977 406.102 826.051 404.029C828.124 401.956 829.769 399.495 830.892 396.787C832.014 394.078 832.591 391.175 832.591 388.244V242.667H834V215.212Z" fill="#3F3D56"/>
<path d="M827.839 177.953V389.248C827.839 393.67 826.082 397.91 822.954 401.037C819.826 404.164 815.583 405.921 811.159 405.921H729.017C726.827 405.921 724.659 405.489 722.636 404.651C720.612 403.813 718.774 402.585 717.226 401.036C715.678 399.488 714.45 397.65 713.612 395.627C712.775 393.605 712.344 391.437 712.345 389.248V177.953C712.345 173.533 714.102 169.294 717.228 166.168C720.355 163.043 724.596 161.287 729.017 161.287H738.983C738.494 162.489 738.308 163.793 738.441 165.085C738.575 166.376 739.023 167.614 739.748 168.692C740.472 169.769 741.45 170.652 742.596 171.263C743.742 171.874 745.02 172.194 746.319 172.195H793.153C794.453 172.198 795.734 171.88 796.881 171.27C798.029 170.66 799.009 169.777 799.734 168.699C800.46 167.62 800.908 166.38 801.039 165.087C801.171 163.794 800.982 162.489 800.489 161.287H811.159C815.582 161.286 819.823 163.042 822.951 166.167C826.079 169.293 827.837 173.532 827.839 177.953Z" fill="#D0CDE1"/>
<path d="M812.288 269.464H716.801V295.221H812.288V269.464Z" fill="#7E0772"/>
<path d="M816.078 290.676H723.622C723.019 290.675 722.441 290.435 722.015 290.009C721.589 289.583 721.349 289.006 721.348 288.403V265.677C721.349 265.074 721.589 264.496 722.015 264.07C722.441 263.644 723.019 263.405 723.622 263.404H816.078C816.68 263.405 817.258 263.644 817.685 264.07C818.111 264.496 818.351 265.074 818.351 265.677V288.403C818.351 289.006 818.111 289.583 817.685 290.009C817.258 290.435 816.68 290.675 816.078 290.676ZM723.622 264.919C723.421 264.919 723.228 264.999 723.086 265.141C722.944 265.283 722.864 265.476 722.864 265.677V288.403C722.864 288.604 722.944 288.797 723.086 288.939C723.228 289.081 723.421 289.16 723.622 289.161H816.078C816.279 289.16 816.471 289.081 816.613 288.939C816.756 288.797 816.835 288.604 816.836 288.403V265.677C816.835 265.476 816.756 265.283 816.613 265.141C816.471 264.999 816.279 264.919 816.078 264.919H723.622Z" fill="#3F3D56"/>
<path d="M739.536 283.858H727.411V285.373H739.536V283.858Z" fill="#3F3D56"/>
<path d="M756.209 283.858H744.083V285.373H756.209V283.858Z" fill="#3F3D56"/>
<path d="M772.881 283.858H760.756V285.373H772.881V283.858Z" fill="#3F3D56"/>
<path d="M789.553 283.858H777.428V285.373H789.553V283.858Z" fill="#3F3D56"/>
<path d="M806.226 283.858H794.1V285.373H806.226V283.858Z" fill="#3F3D56"/>
<path opacity="0.1" d="M827.839 367.764V389.248C827.839 393.67 826.082 397.911 822.954 401.037C819.826 404.164 815.583 405.921 811.159 405.921H729.017C726.827 405.921 724.659 405.49 722.636 404.651C720.612 403.813 718.774 402.585 717.226 401.037C715.678 399.488 714.45 397.65 713.612 395.628C712.775 393.605 712.344 391.437 712.345 389.248V290.418L827.839 367.764Z" fill="black"/>
<path d="M434.128 348.249H75.671V524H434.128V348.249Z" fill="#D0CDE1"/>
<path opacity="0.1" d="M342.998 524H77.1867C76.7851 523.999 76.4002 523.839 76.1163 523.555C75.8323 523.271 75.6722 522.886 75.671 522.485V349.764C75.6722 349.363 75.8323 348.978 76.1162 348.694C76.4002 348.41 76.7851 348.25 77.1867 348.249H80.5515L342.998 524Z" fill="black"/>
<path d="M797.131 371.733H241.637V373.249H797.131V371.733Z" fill="#3F3D56"/>
<path d="M417.26 3.2709H258.501V0H186.513V3.2709H27.0997C25.6894 3.2709 24.293 3.54856 22.9901 4.08804C21.6872 4.62751 20.5033 5.41822 19.5061 6.41503C18.509 7.41184 17.7179 8.59523 17.1783 9.89763C16.6386 11.2 16.3608 12.5959 16.3608 14.0056V231.312C16.3608 234.159 17.4922 236.89 19.5061 238.903C21.5201 240.916 24.2515 242.047 27.0997 242.047H417.26C420.108 242.047 422.839 240.916 424.853 238.903C426.867 236.89 427.999 234.159 427.999 231.312V14.0056C427.999 12.5959 427.721 11.2 427.181 9.89763C426.641 8.59523 425.85 7.41184 424.853 6.41503C423.856 5.41822 422.672 4.62751 421.369 4.08804C420.066 3.54856 418.67 3.2709 417.26 3.2709Z" fill="#3F3D56"/>
<path d="M413.598 22.239H30.7616V238.125H413.598V22.239Z" fill="#D0CDE1"/>
<path d="M221.852 16.3546C224.021 16.3546 225.779 14.5973 225.779 12.4295C225.779 10.2617 224.021 8.50439 221.852 8.50439C219.684 8.50439 217.926 10.2617 217.926 12.4295C217.926 14.5973 219.684 16.3546 221.852 16.3546Z" fill="#7E0772"/>
<path d="M144.634 102.804H135.54C134.937 102.804 134.359 102.564 133.933 102.138C133.507 101.712 133.267 101.134 133.267 100.532V91.4411C133.267 90.8386 133.507 90.2609 133.933 89.8348C134.359 89.4088 134.937 89.1691 135.54 89.1685H144.634C145.237 89.1691 145.815 89.4088 146.241 89.8348C146.667 90.2609 146.907 90.8386 146.908 91.4411V100.532C146.907 101.134 146.667 101.712 146.241 102.138C145.815 102.564 145.237 102.804 144.634 102.804ZM135.54 90.6835C135.339 90.6838 135.147 90.7637 135.005 90.9057C134.862 91.0477 134.783 91.2403 134.782 91.4411V100.532C134.783 100.732 134.862 100.925 135.005 101.067C135.147 101.209 135.339 101.289 135.54 101.289H144.634C144.835 101.289 145.028 101.209 145.17 101.067C145.312 100.925 145.392 100.732 145.392 100.532V91.4411C145.392 91.2403 145.312 91.0477 145.17 90.9057C145.028 90.7637 144.835 90.6838 144.634 90.6835H135.54Z" fill="#3F3D56"/>
<path d="M306.811 101.289H134.024V102.805H306.811V101.289Z" fill="#3F3D56"/>
<path d="M302.264 142.954H262.099V155.075H302.264V142.954Z" fill="#7E0772"/>
<path d="M305.296 152.045H268.162C267.559 152.044 266.981 151.804 266.555 151.378C266.128 150.952 265.889 150.375 265.888 149.772V140.682C265.889 140.079 266.128 139.501 266.555 139.075C266.981 138.649 267.559 138.41 268.162 138.409H305.296C305.898 138.41 306.476 138.649 306.902 139.075C307.329 139.501 307.568 140.079 307.569 140.682V149.772C307.568 150.375 307.329 150.952 306.902 151.378C306.476 151.804 305.898 152.044 305.296 152.045ZM268.162 139.924C267.961 139.924 267.768 140.004 267.626 140.146C267.484 140.288 267.404 140.481 267.404 140.682V149.772C267.404 149.973 267.484 150.165 267.626 150.308C267.768 150.45 267.961 150.529 268.162 150.53H305.296C305.496 150.529 305.689 150.45 305.831 150.308C305.973 150.165 306.053 149.973 306.053 149.772V140.682C306.053 140.481 305.973 140.288 305.831 140.146C305.689 140.004 305.496 139.924 305.296 139.924H268.162Z" fill="#3F3D56"/>
<path d="M609.188 156.59H533.405V209.618H609.188V156.59Z" fill="#7E0772"/>
<path d="M616.767 205.452H544.014C543.211 205.451 542.44 205.131 541.872 204.563C541.303 203.995 540.984 203.225 540.983 202.422V152.423C540.984 151.62 541.303 150.85 541.872 150.282C542.44 149.714 543.211 149.394 544.014 149.393H616.767C617.57 149.394 618.341 149.714 618.909 150.282C619.477 150.85 619.797 151.62 619.798 152.423V202.422C619.797 203.225 619.477 203.995 618.909 204.563C618.341 205.131 617.57 205.451 616.767 205.452ZM544.014 152.423V202.422H616.769L616.767 152.423H544.014Z" fill="#3F3D56"/>
<path d="M608.43 150.53H605.399C605.399 143.9 602.764 137.541 598.074 132.853C593.384 128.164 587.023 125.531 580.39 125.531C573.758 125.531 567.397 128.164 562.707 132.853C558.017 137.541 555.382 143.9 555.382 150.53H552.35C552.35 143.096 555.305 135.967 560.563 130.71C565.822 125.454 572.954 122.5 580.39 122.5C587.827 122.5 594.959 125.454 600.218 130.71C605.476 135.967 608.43 143.096 608.43 150.53Z" fill="#3F3D56"/>
<path d="M587.969 171.362C587.97 170.043 587.627 168.746 586.973 167.6C586.32 166.455 585.378 165.499 584.241 164.829C583.105 164.158 581.813 163.796 580.493 163.779C579.174 163.761 577.872 164.087 576.718 164.727C575.563 165.366 574.596 166.295 573.911 167.423C573.227 168.551 572.849 169.838 572.814 171.157C572.78 172.475 573.091 173.78 573.716 174.942C574.341 176.104 575.259 177.082 576.378 177.781V185.912C576.378 186.438 576.482 186.96 576.684 187.446C576.885 187.933 577.181 188.375 577.553 188.747C577.926 189.12 578.368 189.415 578.855 189.617C579.342 189.818 579.864 189.922 580.39 189.922C581.454 189.922 582.475 189.5 583.227 188.747C583.98 187.995 584.402 186.975 584.402 185.912V177.781C585.493 177.102 586.393 176.156 587.017 175.033C587.641 173.91 587.969 172.647 587.969 171.362Z" fill="#3F3D56"/>
<path d="M227.617 426.276H215.492V427.792H227.617V426.276Z" fill="#3F3D56"/>
<path d="M244.29 426.276H232.164V427.792H244.29V426.276Z" fill="#3F3D56"/>
<path d="M260.962 426.276H248.837V427.792H260.962V426.276Z" fill="#3F3D56"/>
<path d="M277.635 426.276H265.509V427.792H277.635V426.276Z" fill="#3F3D56"/>
<path d="M294.307 426.276H282.182V427.792H294.307V426.276Z" fill="#3F3D56"/>
<path d="M450.042 511.122H94.617C93.8133 511.121 93.0427 510.801 92.4744 510.233C91.9061 509.665 91.5865 508.895 91.5856 508.092V335.371C91.5865 334.568 91.9061 333.797 92.4744 333.229C93.0427 332.661 93.8133 332.342 94.617 332.341H450.042C450.846 332.342 451.616 332.661 452.185 333.229C452.753 333.797 453.073 334.568 453.073 335.371V508.092C453.073 508.895 452.753 509.665 452.185 510.233C451.616 510.801 450.846 511.121 450.042 511.122ZM94.617 335.371V508.092H450.044L450.042 335.371H94.617Z" fill="#3F3D56"/>
<path d="M110.531 361.127C113.043 361.127 115.079 359.092 115.079 356.582C115.079 354.072 113.043 352.037 110.531 352.037C108.02 352.037 105.984 354.072 105.984 356.582C105.984 359.092 108.02 361.127 110.531 361.127Z" fill="#3F3D56"/>
<path d="M126.446 361.127C128.957 361.127 130.993 359.092 130.993 356.582C130.993 354.072 128.957 352.037 126.446 352.037C123.935 352.037 121.899 354.072 121.899 356.582C121.899 359.092 123.935 361.127 126.446 361.127Z" fill="#3F3D56"/>
<path d="M142.361 361.127C144.872 361.127 146.908 359.092 146.908 356.582C146.908 354.072 144.872 352.037 142.361 352.037C139.849 352.037 137.814 354.072 137.814 356.582C137.814 359.092 139.849 361.127 142.361 361.127Z" fill="#3F3D56"/>
<path d="M306.053 436.882H203.745C203.143 436.882 202.565 436.642 202.139 436.216C201.712 435.79 201.473 435.212 201.472 434.61V408.853C201.473 408.25 201.712 407.673 202.139 407.247C202.565 406.821 203.143 406.581 203.745 406.58H306.053C306.656 406.581 307.234 406.821 307.66 407.247C308.087 407.673 308.326 408.25 308.327 408.853V434.61C308.326 435.212 308.087 435.79 307.66 436.216C307.234 436.642 306.656 436.882 306.053 436.882ZM203.745 408.095C203.545 408.096 203.352 408.176 203.21 408.318C203.068 408.46 202.988 408.652 202.988 408.853V434.61C202.988 434.81 203.068 435.003 203.21 435.145C203.352 435.287 203.545 435.367 203.745 435.367H306.053C306.254 435.367 306.447 435.287 306.589 435.145C306.731 435.003 306.811 434.81 306.811 434.61V408.853C306.811 408.652 306.731 408.46 306.589 408.318C306.447 408.176 306.254 408.096 306.053 408.095H203.745Z" fill="#3F3D56"/>
<path d="M331.82 437.64C339.354 437.64 345.461 431.535 345.461 424.004C345.461 416.473 339.354 410.368 331.82 410.368C324.286 410.368 318.179 416.473 318.179 424.004C318.179 431.535 324.286 437.64 331.82 437.64Z" fill="#7E0772"/>
<path d="M336.367 436.125C333.519 436.125 330.735 435.28 328.367 433.699C325.999 432.117 324.154 429.869 323.064 427.239C321.974 424.609 321.689 421.715 322.245 418.923C322.8 416.131 324.172 413.567 326.185 411.554C328.199 409.541 330.765 408.17 333.558 407.614C336.351 407.059 339.246 407.344 341.877 408.434C344.508 409.523 346.757 411.368 348.339 413.735C349.921 416.102 350.766 418.885 350.766 421.731C350.762 425.547 349.243 429.206 346.544 431.904C343.844 434.602 340.184 436.12 336.367 436.125ZM336.367 408.853C333.819 408.853 331.328 409.608 329.209 411.023C327.091 412.438 325.439 414.45 324.464 416.803C323.489 419.156 323.234 421.746 323.731 424.244C324.228 426.742 325.455 429.037 327.257 430.838C329.059 432.639 331.354 433.865 333.854 434.362C336.353 434.859 338.943 434.604 341.297 433.629C343.651 432.655 345.663 431.004 347.079 428.886C348.495 426.768 349.25 424.278 349.25 421.731C349.246 418.317 347.888 415.043 345.473 412.629C343.057 410.215 339.783 408.857 336.367 408.853Z" fill="#3F3D56"/>
<path d="M336.569 427.107L329.232 419.772L331.376 417.63L336.164 422.416L349.527 403.435L352.005 405.18L336.569 427.107Z" fill="#3F3D56"/>
<path opacity="0.1" d="M328.72 238.125H30.7614V38.5947L328.72 238.125Z" fill="black"/>
<path d="M438.748 234.197H401.385V231.506C401.385 231.436 401.371 231.366 401.344 231.302C401.318 231.237 401.278 231.178 401.229 231.128C401.179 231.079 401.12 231.04 401.056 231.013C400.991 230.986 400.921 230.972 400.851 230.972H388.041C387.971 230.972 387.902 230.986 387.837 231.013C387.772 231.04 387.713 231.079 387.664 231.128C387.614 231.178 387.575 231.237 387.548 231.302C387.521 231.366 387.507 231.436 387.507 231.506V234.197H379.501V231.506C379.501 231.436 379.487 231.366 379.46 231.302C379.434 231.237 379.394 231.178 379.345 231.128C379.295 231.079 379.236 231.04 379.172 231.013C379.107 230.986 379.037 230.972 378.967 230.972H366.157C366.087 230.972 366.018 230.986 365.953 231.013C365.888 231.04 365.829 231.079 365.78 231.128C365.73 231.178 365.691 231.237 365.664 231.302C365.637 231.366 365.623 231.436 365.623 231.506V234.197H357.617V231.506C357.617 231.436 357.603 231.366 357.576 231.302C357.55 231.237 357.51 231.178 357.461 231.128C357.411 231.079 357.352 231.04 357.287 231.013C357.223 230.986 357.153 230.972 357.083 230.972H344.273C344.203 230.972 344.134 230.986 344.069 231.013C344.004 231.04 343.945 231.079 343.896 231.128C343.846 231.178 343.807 231.237 343.78 231.302C343.753 231.366 343.739 231.436 343.739 231.506V234.197H335.733V231.506C335.733 231.436 335.719 231.366 335.692 231.302C335.665 231.237 335.626 231.178 335.577 231.128C335.527 231.079 335.468 231.04 335.403 231.013C335.339 230.986 335.269 230.972 335.199 230.972H322.389C322.319 230.972 322.25 230.986 322.185 231.013C322.12 231.04 322.061 231.079 322.012 231.128C321.962 231.178 321.923 231.237 321.896 231.302C321.869 231.366 321.855 231.436 321.855 231.506V234.197H313.849V231.506C313.849 231.436 313.835 231.366 313.808 231.302C313.781 231.237 313.742 231.178 313.693 231.128C313.643 231.079 313.584 231.04 313.519 231.013C313.455 230.986 313.385 230.972 313.315 230.972H300.505C300.435 230.972 300.366 230.986 300.301 231.013C300.236 231.04 300.177 231.079 300.128 231.128C300.078 231.178 300.039 231.237 300.012 231.302C299.985 231.366 299.971 231.436 299.971 231.506V234.197H291.965V231.506C291.965 231.436 291.951 231.366 291.924 231.302C291.897 231.237 291.858 231.178 291.809 231.128C291.759 231.079 291.7 231.04 291.635 231.013C291.571 230.986 291.501 230.972 291.431 230.972H278.621C278.551 230.972 278.481 230.986 278.417 231.013C278.352 231.04 278.293 231.079 278.244 231.128C278.194 231.178 278.155 231.237 278.128 231.302C278.101 231.366 278.087 231.436 278.087 231.506V234.197H270.081V231.506C270.081 231.436 270.067 231.366 270.04 231.302C270.013 231.237 269.974 231.178 269.925 231.128C269.875 231.079 269.816 231.04 269.751 231.013C269.687 230.986 269.617 230.972 269.547 230.972H169.201C169.131 230.972 169.061 230.986 168.997 231.013C168.932 231.04 168.873 231.079 168.823 231.128C168.774 231.178 168.735 231.237 168.708 231.302C168.681 231.366 168.667 231.436 168.667 231.506V234.197H160.661V231.506C160.661 231.436 160.647 231.366 160.62 231.302C160.593 231.237 160.554 231.178 160.504 231.128C160.455 231.079 160.396 231.04 160.331 231.013C160.266 230.986 160.197 230.972 160.127 230.972H147.317C147.247 230.972 147.177 230.986 147.113 231.013C147.048 231.04 146.989 231.079 146.939 231.128C146.89 231.178 146.851 231.237 146.824 231.302C146.797 231.366 146.783 231.436 146.783 231.506V234.197H138.777V231.506C138.777 231.436 138.763 231.366 138.736 231.302C138.709 231.237 138.67 231.178 138.62 231.128C138.571 231.079 138.512 231.04 138.447 231.013C138.382 230.986 138.313 230.972 138.243 230.972H125.433C125.363 230.972 125.293 230.986 125.229 231.013C125.164 231.04 125.105 231.079 125.055 231.128C125.006 231.178 124.967 231.237 124.94 231.302C124.913 231.366 124.899 231.436 124.899 231.506V234.197H116.893V231.506C116.893 231.436 116.879 231.366 116.852 231.302C116.825 231.237 116.786 231.178 116.736 231.128C116.687 231.079 116.628 231.04 116.563 231.013C116.498 230.986 116.429 230.972 116.359 230.972H103.549C103.479 230.972 103.409 230.986 103.345 231.013C103.28 231.04 103.221 231.079 103.171 231.128C103.122 231.178 103.083 231.237 103.056 231.302C103.029 231.366 103.015 231.436 103.015 231.506V234.197H95.0087V231.506C95.0087 231.436 94.9949 231.366 94.9681 231.302C94.9412 231.237 94.9019 231.178 94.8524 231.128C94.8028 231.079 94.7439 231.04 94.6792 231.013C94.6144 230.986 94.545 230.972 94.4749 230.972H81.6647C81.5947 230.972 81.5252 230.986 81.4605 231.013C81.3957 231.04 81.3369 231.079 81.2873 231.128C81.2378 231.178 81.1984 231.237 81.1716 231.302C81.1448 231.366 81.131 231.436 81.131 231.506V234.197H73.1247V231.506C73.1247 231.436 73.1109 231.366 73.0841 231.302C73.0572 231.237 73.0179 231.178 72.9684 231.128C72.9188 231.079 72.8599 231.04 72.7952 231.013C72.7304 230.986 72.661 230.972 72.5909 230.972H59.7808C59.7107 230.972 59.6412 230.986 59.5765 231.013C59.5117 231.04 59.4529 231.079 59.4033 231.128C59.3538 231.178 59.3144 231.237 59.2876 231.302C59.2608 231.366 59.247 231.436 59.247 231.506V234.197H51.2406V231.506C51.2406 231.436 51.2268 231.366 51.2 231.302C51.1732 231.237 51.1339 231.178 51.0843 231.128C51.0347 231.079 50.9759 231.04 50.9111 231.013C50.8464 230.986 50.777 230.972 50.7069 230.972H37.8967C37.8266 230.972 37.7572 230.986 37.6925 231.013C37.6277 231.04 37.5689 231.079 37.5193 231.128C37.4697 231.178 37.4304 231.237 37.4036 231.302C37.3768 231.366 37.363 231.436 37.363 231.506V234.197H12.8102C11.1279 234.197 9.46212 234.528 7.90792 235.171C6.35372 235.815 4.94154 236.758 3.752 237.947C2.56247 239.136 1.61888 240.548 0.975113 242.102C0.331342 243.655 -9.95204e-07 245.32 0 247.002V252.792C8.03962e-06 256.188 1.34965 259.445 3.75202 261.847C6.15439 264.248 9.4127 265.597 12.8102 265.597H438.748C440.43 265.597 442.096 265.266 443.65 264.623C445.204 263.979 446.617 263.036 447.806 261.847C448.996 260.658 449.939 259.246 450.583 257.693C451.227 256.139 451.558 254.474 451.558 252.792V247.002C451.558 245.32 451.227 243.655 450.583 242.102C449.939 240.548 448.996 239.136 447.806 237.947C446.617 236.758 445.204 235.815 443.65 235.171C442.096 234.528 440.43 234.197 438.748 234.197Z" fill="#3F3D56"/>
<path d="M321.968 164.923H121.899C121.296 164.922 120.718 164.683 120.292 164.257C119.866 163.831 119.626 163.253 119.626 162.65V79.3202C119.626 78.7177 119.866 78.14 120.292 77.714C120.718 77.2879 121.296 77.0483 121.899 77.0476H321.968C322.571 77.0483 323.149 77.2879 323.575 77.714C324.001 78.14 324.241 78.7177 324.242 79.3202V162.65C324.241 163.253 324.001 163.831 323.575 164.257C323.149 164.683 322.571 164.922 321.968 164.923ZM121.899 78.5627C121.698 78.563 121.506 78.6429 121.363 78.7849C121.221 78.9269 121.141 79.1194 121.141 79.3202V162.65C121.141 162.851 121.221 163.044 121.363 163.186C121.506 163.328 121.698 163.408 121.899 163.408H321.968C322.169 163.408 322.362 163.328 322.504 163.186C322.646 163.044 322.726 162.851 322.726 162.65V79.3202C322.726 79.1194 322.646 78.9269 322.504 78.7849C322.362 78.6429 322.169 78.563 321.968 78.5627H121.899Z" fill="#3F3D56"/>
<path d="M144.634 125.531H135.54C134.937 125.53 134.359 125.29 133.933 124.864C133.507 124.438 133.267 123.861 133.267 123.258V114.167C133.267 113.565 133.507 112.987 133.933 112.561C134.359 112.135 134.937 111.895 135.54 111.895H144.634C145.237 111.895 145.815 112.135 146.241 112.561C146.667 112.987 146.907 113.565 146.908 114.167V123.258C146.907 123.861 146.667 124.438 146.241 124.864C145.815 125.29 145.237 125.53 144.634 125.531ZM135.54 113.41C135.339 113.41 135.147 113.49 135.005 113.632C134.862 113.774 134.783 113.967 134.782 114.167V123.258C134.783 123.459 134.862 123.651 135.005 123.793C135.147 123.935 135.339 124.015 135.54 124.016H144.634C144.835 124.015 145.028 123.935 145.17 123.793C145.312 123.651 145.392 123.459 145.392 123.258V114.167C145.392 113.967 145.312 113.774 145.17 113.632C145.028 113.49 144.835 113.41 144.634 113.41H135.54Z" fill="#3F3D56"/>
<path d="M306.811 124.015H134.024V125.531H306.811V124.015Z" fill="#3F3D56"/>
<path d="M756.208 204.315H200.714V205.831H756.208V204.315Z" fill="#3F3D56"/>
<path d="M200.714 214.921C206.574 214.921 211.324 210.173 211.324 204.315C211.324 198.458 206.574 193.71 200.714 193.71C194.855 193.71 190.104 198.458 190.104 204.315C190.104 210.173 194.855 214.921 200.714 214.921Z" fill="#3F3D56"/>
<path d="M756.209 214.164C760.812 214.164 764.545 210.433 764.545 205.831C764.545 201.228 760.812 197.498 756.209 197.498C751.605 197.498 747.872 201.228 747.872 205.831C747.872 210.433 751.605 214.164 756.209 214.164Z" fill="#3F3D56"/>
<path d="M797.132 381.581C801.736 381.581 805.468 377.85 805.468 373.248C805.468 368.646 801.736 364.915 797.132 364.915C792.528 364.915 788.796 368.646 788.796 373.248C788.796 377.85 792.528 381.581 797.132 381.581Z" fill="#3F3D56"/>
<path d="M243.911 381.581C248.515 381.581 252.247 377.85 252.247 373.248C252.247 368.646 248.515 364.915 243.911 364.915C239.307 364.915 235.575 368.646 235.575 373.248C235.575 377.85 239.307 381.581 243.911 381.581Z" fill="#3F3D56"/>
</g>
<defs>
<clipPath id="clip0_129_1550">
<rect width="834" height="524" fill="white"/>
</clipPath>
</defs>
</svg>
